<svg width="142" height="40" viewBox="0 0 142 40" fill="none" xmlns="http://www.w3.org/2000/svg">
<path fill-rule="evenodd" clip-rule="evenodd" d="M35.1164 13.948C35.2824 13.402 35.1164 13 34.3214 13H31.6964C31.0284 13 30.7204 13.347 30.5534 13.73C30.5534 13.73 29.2184 16.926 27.3274 19.002C26.7154 19.604 26.4374 19.795 26.1034 19.795C25.9364 19.795 25.6854 19.604 25.6854 19.057V13.948C25.6854 13.292 25.5014 13 24.9454 13H20.8174C20.4004 13 20.1494 13.304 20.1494 13.593C20.1494 14.214 21.0954 14.358 21.1924 16.106V19.904C21.1924 20.737 21.0394 20.888 20.7054 20.888C19.8154 20.888 17.6504 17.677 16.3654 14.003C16.1164 13.288 15.8644 13 15.1934 13H12.5664C11.8164 13 11.6664 13.347 11.6664 13.73C11.6664 14.412 12.5564 17.8 15.8114 22.281C17.9814 25.341 21.0364 27 23.8194 27C25.4884 27 25.6944 26.632 25.6944 25.997V23.684C25.6944 22.947 25.8524 22.8 26.3814 22.8C26.7714 22.8 27.4384 22.992 28.9964 24.467C30.7764 26.216 31.0694 27 32.0714 27H34.6964C35.4464 27 35.8224 26.632 35.6064 25.904C35.3684 25.18 34.5184 24.129 33.3914 22.882C32.7794 22.172 31.8614 21.407 31.5824 21.024C31.1934 20.533 31.3044 20.314 31.5824 19.877C31.5824 19.877 34.7824 15.451 35.1154 13.948H35.1164Z" fill="#83B3D3"/>
<path d="M78.785 12.0993L62.8405 18.2478C61.7523 18.6848 61.7586 19.2918 62.6408 19.5625L66.7344 20.8395L76.2058 14.8637C76.6537 14.5912 77.0629 14.7378 76.7265 15.0364L69.0528 21.9619H69.051L69.0528 21.9628L68.7705 26.1823C69.1841 26.1823 69.3667 25.9925 69.5987 25.7686L71.5871 23.8351L75.7229 26.89C76.4855 27.31 77.0332 27.0941 77.2229 26.1841L79.9379 13.3889C80.2158 12.2746 79.5126 11.7701 78.785 12.0993Z" fill="#83B3D3"/>
<path d="M125.94 11.5H110.507C108.647 11.5 107.333 13.0938 107.333 14.9V24.9937C107.333 26.9062 108.647 28.5 110.507 28.5H126.159C127.801 28.5 129.333 26.9062 129.333 25.1V14.9C129.114 13.0938 127.801 11.5 125.94 11.5ZM114.995 24.0375V15.9625L122.328 20L114.995 24.0375Z" fill="#83B3D3"/>
</svg>
